# xmcd CD database file
#
# Track frame offsets:
#	150
#	13611
#	28657
#	42135
#	56174
#	69944
#	83902
#	99297
#	114619
#	129006
#	139902
#	153300
#
# Disc length: 2242 seconds
#
# Revision: 0
# Processed by: cddbd v1.5.2PL0 Copyright (c) Steve Scherf et al.
# Submitted via: CDex 1.70beta2
#
DISCID=9208c00c
DTITLE=Four Tops - Yesterday's Dreams
DYEAR=1968
DGENRE=Rhythmic Soul
TTITLE0=Yesterday's Dreams 
TTITLE1=Can't Seem to Get You out of My Mind 
TTITLE2=I'm in a Different World 
TTITLE3=We've Got a Strong Love (On Our Side) 
TTITLE4=By the Time I Get to Phoenix 
TTITLE5=Remember When 
TTITLE6=Sunny 
TTITLE7=Never My Love
TTITLE8=Daydream Believer 
TTITLE9=Once upon a Time 
TTITLE10=The Sweetheart Tree 
TTITLE11=A Place in the Sun 
EXTD=YEAR: 1968
EXTT0=
EXTT1=
EXTT2=
EXTT3=
EXTT4=
EXTT5=
EXTT6=
EXTT7=
EXTT8=
EXTT9=
EXTT10=
EXTT11=
PLAYORDER=
